<?xml version="1.0" encoding="utf-8"?>
<!-- Generator: Adobe Illustrator 19.0.0, SVG Export Plug-In . SVG Version: 6.00 Build 0)  -->
<svg version="1.2" baseProfile="tiny" id="Lager_1" xmlns="http://www.w3.org/2000/svg" xmlns:xlink="http://www.w3.org/1999/xlink"
	 x="0px" y="0px" viewBox="0 0 361.8 444.5" xml:space="preserve">
<rect fill="#00293E" width="361.8" height="444.5"/>
<path fill="#CFA579" d="M280.6,209.2c-7.6,0-18.3-4.2-25.1-8.2c-5.9-3.4-15.2-9.1-29.1-20.9c9.3-11.4,20.9-32.7,20.9-49.7
	c0-2.1-0.6-3.8-3.8-4.2c-11.8-1.3-20.2-1.5-25.3-1.5c-1.7,0-3.4,0.4-3.4,1.5c0,1.1,1.3,1.5,2.5,1.5c3.2,0,7.6,0.6,10.3,3.4
	c3.2,3.2,4,7.2,4,10.3c0,12.9-4.8,27-10.7,35c-6-5-26.9-24.5-36.6-34.4v-25c0-6,0-11.1,0-15.5c12.6-2.5,24.8-2.4,33.4,0.1
	c4.3,1.3,7.6,3.9,7.6,7.7c0,2,0.5,2.5,1.5,2.5c1,0,1.4-0.8,1.4-2.6c0-2.5,0.5-19.6,0.5-21c0-1-0.4-1.7-2.3-1.8
	c-5.4-0.2-5.4-0.2-13.3-0.2c-0.5,0-1,0-1.4,0.1c-1.7,0-3.4,0-5.2,0.1c0.2-7.3,0.5-20.9,0.5-25.8c0-2.5-0.2-3.8-2.7-5.3
	c-5.7-3.2-14.7-5.3-25.5-5.3c-28.2,0-45.3,22.1-45.3,38.8c0,5.9-0.4,13.6,5.6,21.4c-0.2,0.2-0.3,0.3-0.5,0.5
	c-16.5,12.9-28.2,31.7-27.1,58c0,18.3,14.3,46.6,51.2,46.6c31.2,0,47.8-17.9,52.7-22.8c23.2,18.3,28.2,19.8,43.8,19.8H280
	c1.9,0,3.6-0.6,3.6-1.5C283.6,209.4,282.5,209.2,280.6,209.2z M166.7,116.9v5.5c-3.5-4.2-6.6-8-9.1-11.7c2.9-1.6,6-2.9,9.1-4.2
	C166.7,109.7,166.7,113.1,166.7,116.9z M184.4,89.6c0-10.1,0.1-14,0.4-18.2c0.4-7.3,0.6-12.5,6.2-9.1c1.8,1.2,3.4,2.6,4.7,4.1
	c4.3,4.5,5.9,14,6.4,20.3C196.7,87.1,190.6,88.1,184.4,89.6z M147.9,84.7c0-11.6,4.8-19,11.4-23.2c1.4-0.9,2.7-1.7,3.7-1.7
	c3.3,0,2.9,4.5,3.3,11.6c0.3,4.9,0.4,9.3,0.4,23.6c-4.9,1.9-9.8,4.1-14.5,6.7C149.3,96,147.9,90.5,147.9,84.7z M128.1,158.6
	c0-5.8,0.6-11.7,1.8-17.1c2.5-8.9,7.9-16.3,15-22.4c5,7.1,15,19.5,21.8,27.6v7.2c0,20.2,0,29.8-1.1,38.7c-0.6,4.3,0.1,12.1-9.4,8.8
	c-0.1,0-0.2-0.1-0.2,0C139.6,195.6,128.1,179.4,128.1,158.6z M191.5,200.2c-4.4,1.4-6.4,1-6.4-2.9c-0.1-7.4-0.5-17.9-0.6-32.2
	c8.3,7.9,18.6,17.4,25.6,23.2C205.9,192.6,199.7,197.2,191.5,200.2z"/>
<g>
	<path fill="#CFA579" d="M49.8,282.4c0-9.4,0-11-0.1-13c-0.1-2-0.6-3-2.6-3.4c-0.5-0.1-1.5-0.2-2-0.2c-0.2,0-0.5-0.1-0.5-0.4
		c0-0.4,0.3-0.5,1-0.5c2.7,0,6.5,0.2,6.8,0.2c1.4,0,3.8-0.2,6.5-0.2c9.8,0,12,6,12,9c0,4.9-2.8,7.9-5.6,10.8
		c4.4,1.4,10.4,5.6,10.4,12.7c0,6.4-5,13.1-15.3,13.1c-0.7,0-2.6-0.1-4.3-0.2c-1.7-0.1-3.4-0.2-3.7-0.2c-0.1,0-1.1,0-2.4,0.1
		c-1.2,0-2.6,0.1-3.5,0.1c-0.7,0-1-0.1-1-0.5c0-0.2,0.1-0.4,0.5-0.4c0.5,0,1.3-0.1,1.8-0.2c1.2-0.2,1.5-1.6,1.7-3.3
		c0.3-2.5,0.3-7.3,0.3-13V282.4z M54.6,283.7c0,0.4,0.1,0.5,0.4,0.7c0.4,0.1,1.4,0.2,3.7,0.2c3.4,0,4.2-0.1,5.5-1.6
		c1.3-1.4,2.2-3.6,2.2-6.1c0-5-2.2-10.3-8.1-10.3c-0.7,0-1.9,0.1-2.9,0.3c-0.5,0.1-0.7,0.3-0.7,0.7V283.7z M54.6,290
		c0,4.6,0,12.1,0.1,13c0.2,2.9,0.2,3.8,2,4.7c1.6,0.8,4.2,0.9,5.3,0.9c3.2,0,8.5-1.7,8.5-8.5c0-3.6-1.2-8.8-5.8-12
		c-2-1.4-3.5-1.6-5-1.7c-0.8-0.1-3.8-0.1-4.7-0.1c-0.2,0-0.4,0.1-0.4,0.4V290z"/>
	<path fill="#CFA579" d="M107.8,264.1c13.5,0,23.6,8.5,23.6,22.5c0,13.4-9.5,24.5-23.9,24.5c-16.4,0-23.3-12.8-23.3-23.6
		C84.2,277.9,91.2,264.1,107.8,264.1z M109.1,308.9c5.4,0,16.6-3.1,16.6-20.6c0-14.4-8.8-22.1-18.2-22.1c-10,0-17.5,6.6-17.5,19.7
		C89.9,299.9,98.3,308.9,109.1,308.9z"/>
	<path fill="#CFA579" d="M142.1,309.5c-0.8-0.4-0.9-0.7-0.9-2.3c0-3,0.2-5.4,0.3-6.4c0.1-0.7,0.2-1,0.5-1c0.4,0,0.4,0.2,0.4,0.7
		c0,0.5,0,1.4,0.2,2.2c0.9,4.4,4.9,6.1,8.9,6.1c5.8,0,8.6-4.1,8.6-8c0-4.1-1.7-6.5-6.9-10.8l-2.7-2.2c-6.4-5.2-7.8-8.9-7.8-13
		c0-6.4,4.8-10.8,12.4-10.8c2.3,0,4.1,0.2,5.6,0.6c1.1,0.2,1.6,0.3,2.1,0.3s0.6,0.1,0.6,0.4s-0.2,2.3-0.2,6.4c0,1-0.1,1.4-0.4,1.4
		c-0.4,0-0.4-0.3-0.5-0.8c-0.1-0.7-0.4-2.3-0.8-3c-0.4-0.7-2-3.2-7.5-3.2c-4.1,0-7.4,2.6-7.4,7c0,3.4,1.6,5.6,7.3,10.1l1.7,1.3
		c7.1,5.6,8.8,9.3,8.8,14.1c0,2.5-1,7-5.1,10c-2.6,1.8-5.8,2.5-9.1,2.5C147.3,311.2,144.5,310.7,142.1,309.5z"/>
	<path fill="#CFA579" d="M206.1,309.1c-2.2,1.1-6.2,2-9.4,2c-16.6,0-23.5-12.8-23.5-23.6c0-9.7,7.1-23.5,23.6-23.5
		c13.5,0,23.6,8.6,23.6,22.5c0,10.6-6.7,17.6-10.6,20.2l12.3,6.4c13.1,6.8,22.3,7.1,25.3,7.1c3,0,7.7-0.7,11.8-2.3
		c0.4-0.1,0.7-0.2,0.8-0.2c0.2,0,0.4,0.2,0.4,0.4c0,0.2-0.1,0.4-0.5,0.6c-3.4,1.6-10.1,4.1-19,4.1c-7.3,0-15-2.6-24.7-8L206.1,309.1
		z M198.2,308.9c5.4,0,16.6-3.1,16.6-20.6c0-14.4-8.8-22.1-18.2-22.1c-10,0-17.5,6.6-17.5,19.7C179,299.9,187.4,308.9,198.2,308.9z"
		/>
	<path fill="#CFA579" d="M231.8,282.4c0-9.4,0-11-0.1-13c-0.1-2-0.6-3-2.6-3.4c-0.5-0.1-1.5-0.2-2-0.2c-0.2,0-0.5-0.1-0.5-0.4
		c0-0.4,0.3-0.5,1-0.5c2.7,0,6.4,0.2,6.9,0.2c0.5,0,4.1-0.2,5.9-0.2c0.7,0,1,0.1,1,0.5c0,0.2-0.2,0.4-0.5,0.4
		c-0.4,0-0.8,0.1-1.5,0.2c-1.6,0.2-2.1,1.3-2.2,3.4c-0.1,1.9-0.1,3.6-0.1,13v8.4c0,8.6,1.9,12.4,4.5,14.8c2.9,2.8,5.6,3.3,9.1,3.3
		c3.7,0,7.3-1.7,9.4-4.3c2.8-3.4,3.5-8.5,3.5-14.7v-7.5c0-9.4,0-11-0.1-13c-0.1-2-0.6-3-2.6-3.4c-0.5-0.1-1.5-0.2-2-0.2
		c-0.2,0-0.5-0.1-0.5-0.4c0-0.4,0.3-0.5,1-0.5c2.7,0,6,0.2,6.4,0.2c0.4,0,3.2-0.2,5-0.2c0.7,0,1,0.1,1,0.5c0,0.2-0.2,0.4-0.5,0.4
		c-0.4,0-0.8,0.1-1.5,0.2c-1.6,0.4-2.1,1.3-2.2,3.4c-0.1,1.9-0.1,3.6-0.1,13v6.4c0,6.5-0.7,13.7-5.5,17.9c-4.3,3.8-8.8,4.4-12.4,4.4
		c-2,0-8.1-0.2-12.4-4.3c-2.9-2.8-5.2-7-5.2-15.8V282.4z"/>
	<path fill="#CFA579" d="M285.1,282.4c0-9.4,0-11-0.1-13c-0.1-2-0.6-3-2.6-3.4c-0.5-0.1-1.5-0.2-2-0.2c-0.2,0-0.5-0.1-0.5-0.4
		c0-0.4,0.3-0.5,1-0.5c1.4,0,3,0,4.3,0.1l2.5,0.1c0.4,0,12.4,0,13.7-0.1c1.1-0.1,2.1-0.2,2.6-0.3c0.3-0.1,0.5-0.3,0.8-0.3
		c0.2,0,0.2,0.2,0.2,0.5c0,0.4-0.3,1.1-0.5,2.8c-0.1,0.6-0.2,3.2-0.3,4c-0.1,0.3-0.2,0.7-0.4,0.7c-0.4,0-0.5-0.3-0.5-0.8
		c0-0.4-0.1-1.4-0.4-2.2c-0.4-1-1-1.7-4.3-2c-1-0.1-7.6-0.2-8.2-0.2c-0.2,0-0.4,0.2-0.4,0.6v16.6c0,0.4,0.1,0.6,0.4,0.6
		c0.8,0,8.2,0,9.5-0.1c1.4-0.1,2.3-0.2,2.8-0.8c0.4-0.5,0.7-0.8,0.9-0.8c0.2,0,0.3,0.1,0.3,0.5s-0.3,1.4-0.5,3.4
		c-0.1,1.2-0.2,3.4-0.2,3.8c0,0.5,0,1.1-0.4,1.1c-0.3,0-0.4-0.2-0.4-0.5c0-0.6,0-1.2-0.2-2c-0.2-0.8-0.8-1.9-3.1-2.1
		c-1.6-0.2-7.6-0.3-8.6-0.3c-0.3,0-0.4,0.2-0.4,0.4v5.3c0,2-0.1,9,0,10.3c0.2,4.1,1.1,4.9,7,4.9c1.6,0,4.2,0,5.8-0.7
		c1.6-0.7,2.3-1.9,2.7-4.3c0.1-0.7,0.2-0.9,0.5-0.9c0.4,0,0.4,0.5,0.4,0.9c0,0.5-0.5,4.6-0.8,5.8c-0.4,1.6-0.9,1.6-3.2,1.6
		c-4.5,0-7.8-0.1-10.1-0.2c-2.3-0.1-3.8-0.2-4.7-0.2c-0.1,0-1.1,0-2.4,0.1c-1.2,0-2.6,0.1-3.5,0.1c-0.7,0-1-0.1-1-0.5
		c0-0.2,0.1-0.4,0.5-0.4c0.5,0,1.3-0.1,1.8-0.2c1.2-0.2,1.5-1.6,1.7-3.3c0.3-2.5,0.3-7.3,0.3-13V282.4z"/>
	<path fill="#CFA579" d="M50.3,376.2c-5.8-5.2-7.3-12.1-7.3-17.8c0-4,1.4-11,6.7-16.4c3.6-3.6,9.1-6.4,18.3-6.4
		c2.4,0,5.8,0.2,8.7,0.7c2.3,0.4,4.2,0.8,6.1,0.9c0.7,0.1,0.8,0.3,0.8,0.7c0,0.5-0.2,1.2-0.3,3.4c-0.1,2-0.1,5.3-0.2,6.2
		c-0.1,0.9-0.2,1.3-0.5,1.3c-0.4,0-0.5-0.4-0.5-1.3c0-2.3-1-4.8-2.5-6.1c-2.1-1.8-6.7-3.4-12-3.4c-8,0-11.7,2.3-13.8,4.4
		c-4.4,4.2-5.4,9.5-5.4,15.7c0,11.5,8.8,22,21.7,22c4.5,0,8-0.5,10.4-3c1.3-1.3,2-4,2.2-5c0.1-0.7,0.2-0.9,0.6-0.9
		c0.3,0,0.4,0.4,0.4,0.9c0,0.4-0.7,5.6-1.3,7.7c-0.4,1.1-0.5,1.3-1.6,1.7c-2.4,1-7,1.4-10.8,1.4C61.1,382.6,55.1,380.4,50.3,376.2z"
		/>
	<path fill="#CFA579" d="M117.4,335.6c13.5,0,23.6,8.5,23.6,22.5c0,13.4-9.5,24.5-23.9,24.5c-16.4,0-23.3-12.8-23.3-23.6
		C93.8,349.4,100.8,335.6,117.4,335.6z M118.7,380.4c5.4,0,16.6-3.1,16.6-20.6c0-14.4-8.8-22.1-18.2-22.1c-10,0-17.5,6.6-17.5,19.7
		C99.5,371.4,107.9,380.4,118.7,380.4z"/>
	<path fill="#CFA579" d="M160.7,364.5c0,8.8,0.2,12.7,1.3,13.7c1,1,2.5,1.4,7.2,1.4c3.2,0,5.8-0.1,7.3-1.8c0.8-1,1.4-2.5,1.6-3.6
		c0.1-0.5,0.2-0.8,0.5-0.8c0.3,0,0.4,0.2,0.4,0.9s-0.4,4.3-0.9,6c-0.4,1.4-0.6,1.6-3.8,1.6c-4.3,0-7.4-0.1-10-0.2
		c-2.5-0.1-4.4-0.2-6.1-0.2c-0.2,0-1.3,0.1-2.5,0.1c-1.2,0.1-2.5,0.1-3.4,0.1c-0.7,0-1-0.1-1-0.5c0-0.2,0.1-0.4,0.5-0.4
		c0.5,0,1.3-0.1,1.8-0.2c1.2-0.2,1.5-1.6,1.7-3.3c0.3-2.5,0.3-7.3,0.3-13v-10.6c0-9.4,0-11-0.1-13c-0.1-2-0.6-3-2.6-3.4
		c-0.5-0.1-1.5-0.2-2-0.2c-0.2,0-0.5-0.1-0.5-0.4c0-0.4,0.3-0.5,1-0.5c2.7,0,6.5,0.2,6.8,0.2c0.3,0,4.7-0.2,6.5-0.2
		c0.7,0,1,0.1,1,0.5c0,0.2-0.2,0.4-0.5,0.4c-0.4,0-1.3,0.1-2,0.2c-1.7,0.3-2.2,1.3-2.3,3.4c-0.1,1.9-0.1,3.6-0.1,13V364.5z"/>
	<path fill="#CFA579" d="M199.3,364.4c0,5.8,0,10.5,0.3,13c0.2,1.7,0.5,3.1,2.3,3.3c0.8,0.1,2.2,0.2,2.7,0.2c0.4,0,0.5,0.2,0.5,0.4
		c0,0.3-0.3,0.5-1,0.5c-3.3,0-7.1-0.2-7.4-0.2c-0.3,0-4.1,0.2-5.9,0.2c-0.7,0-1-0.1-1-0.5c0-0.2,0.1-0.4,0.5-0.4
		c0.5,0,1.3-0.1,1.8-0.2c1.2-0.2,1.5-1.6,1.7-3.3c0.3-2.5,0.3-7.3,0.3-13v-10.6c0-9.4,0-11-0.1-13c-0.1-2-0.7-3.1-2-3.4
		c-0.7-0.2-1.4-0.2-1.9-0.2c-0.2,0-0.5-0.1-0.5-0.4c0-0.4,0.3-0.5,1-0.5c2,0,5.8,0.2,6.1,0.2c0.3,0,4.1-0.2,5.9-0.2
		c0.7,0,1,0.1,1,0.5c0,0.2-0.2,0.4-0.5,0.4c-0.4,0-0.8,0.1-1.5,0.2c-1.6,0.3-2.1,1.3-2.2,3.4c-0.1,1.9-0.1,3.6-0.1,13V364.4z"/>
	<path fill="#CFA579" d="M225.2,373.6c0.1,4.9,0.7,6.5,2.3,7c1.1,0.3,2.5,0.4,3,0.4c0.3,0,0.5,0.1,0.5,0.4c0,0.4-0.4,0.5-1.1,0.5
		c-3.4,0-5.8-0.2-6.4-0.2s-3.1,0.2-5.8,0.2c-0.6,0-1-0.1-1-0.5c0-0.2,0.2-0.4,0.5-0.4c0.5,0,1.6-0.1,2.5-0.4
		c1.5-0.4,1.8-2.2,1.8-7.6l0.1-34.4c0-2.3,0.2-3,0.7-3s1.5,1.3,2.1,1.9c0.9,1,9.8,10.7,19.1,20.6c5.9,6.4,12.5,13.7,14.4,15.7
		l-0.7-30.5c-0.1-3.9-0.5-5.2-2.3-5.7c-1.1-0.2-2.5-0.3-2.9-0.3c-0.4,0-0.5-0.2-0.5-0.4c0-0.4,0.5-0.4,1.2-0.4
		c2.7,0,5.6,0.2,6.2,0.2c0.7,0,2.6-0.2,5.1-0.2c0.7,0,1.1,0.1,1.1,0.4c0,0.2-0.2,0.4-0.7,0.4c-0.3,0-0.7,0-1.4,0.2
		c-2,0.4-2.2,1.7-2.2,5.3l-0.1,35.2c0,4-0.1,4.3-0.5,4.3c-0.5,0-1.2-0.7-4.4-3.8c-0.7-0.6-9.3-9.4-15.7-16.3
		c-7-7.5-13.7-15.1-15.7-17.2L225.2,373.6z"/>
	<path fill="#CFA579" d="M292.1,338c0.7-2,1-2.3,1.3-2.3c0.4,0,0.6,0.3,1.3,2.2c0.9,2.3,10.3,27.1,14,36.2c2.2,5.3,3.9,6.3,5.2,6.7
		c0.9,0.3,1.8,0.4,2.4,0.4c0.4,0,0.6,0.1,0.6,0.4c0,0.4-0.5,0.5-1.2,0.5c-0.9,0-5.3,0-9.4-0.1c-1.1-0.1-1.8-0.1-1.8-0.4
		c0-0.2,0.2-0.4,0.4-0.4c0.4-0.1,0.7-0.7,0.4-1.6l-5.6-14.8c-0.1-0.2-0.2-0.4-0.5-0.4h-12.9c-0.3,0-0.5,0.2-0.6,0.5l-3.6,10.6
		c-0.5,1.5-0.8,2.9-0.8,4c0,1.2,1.3,1.7,2.3,1.7h0.6c0.4,0,0.6,0.1,0.6,0.4c0,0.4-0.4,0.5-0.9,0.5c-1.4,0-4-0.2-4.7-0.2
		s-4,0.2-6.8,0.2c-0.8,0-1.1-0.1-1.1-0.5c0-0.2,0.2-0.4,0.5-0.4c0.4,0,1.3-0.1,1.7-0.1c2.8-0.4,4-2.6,5-5.6L292.1,338z M298.3,361.9
		c0.3,0,0.3-0.2,0.2-0.4l-5.7-16.2c-0.3-0.9-0.6-0.9-0.9,0l-5.3,16.2c-0.1,0.3,0,0.4,0.2,0.4H298.3z"/>
</g>
</svg>
