<?xml version="1.0" encoding="utf-8"?>
<!-- Generator: Adobe Illustrator 19.0.0, SVG Export Plug-In . SVG Version: 6.00 Build 0)  -->
<svg version="1.1" id="Lager_1" xmlns="http://www.w3.org/2000/svg" xmlns:xlink="http://www.w3.org/1999/xlink" x="0px" y="0px"
	 viewBox="0 0 273 40" style="enable-background:new 0 0 273 40;" xml:space="preserve">
<style type="text/css">
	.st0{clip-path:url(#XMLID_28_);fill:#FFFFFF;}
	.st1{clip-path:url(#XMLID_29_);fill:#7DCFDA;}
	.st2{clip-path:url(#XMLID_29_);fill:#FFFFFF;}
	.st3{clip-path:url(#XMLID_30_);fill:#7DCFDA;}
	.st4{clip-path:url(#XMLID_30_);fill:#FFFFFF;}
</style>
<g id="XMLID_19_">
	<defs>
		<rect id="XMLID_20_" x="0.1" y="0.1" width="272.1" height="39.9"/>
	</defs>
	<clipPath id="XMLID_28_">
		<use xlink:href="#XMLID_20_"  style="overflow:visible;"/>
	</clipPath>
	<path id="XMLID_27_" class="st0" d="M263.5,33.1c4.9,0,8.8-2.5,8.8-7.4v-0.1c0-4.2-3.9-5.8-7.3-6.9c-2.8-0.9-5.3-1.6-5.3-3.4v-0.1
		c0-1.3,1.2-2.3,3.3-2.3c2,0,4.4,0.8,6.7,2.2l2.1-3.8c-2.5-1.7-5.7-2.7-8.7-2.7c-4.7,0-8.4,2.7-8.4,7.2V16c0,4.5,3.9,5.9,7.4,6.9
		c2.8,0.8,5.3,1.5,5.3,3.3v0.1c0,1.6-1.3,2.5-3.7,2.5c-2.4,0-5.1-1-7.7-2.9l-2.4,3.7C256.4,31.9,260.1,33.1,263.5,33.1"/>
	<path id="XMLID_26_" class="st0" d="M241.2,33.2c4.6,0,7.3-1.8,9.6-4.4l-3.3-3.2c-1.7,1.7-3.6,2.9-6.1,2.9c-4.2,0-7.1-3.3-7.1-7.5
		v-0.1c0-4.1,2.9-7.5,6.8-7.5c2.7,0,4.4,1.2,6.1,2.9l3.4-3.6c-2.2-2.4-5-4.1-9.4-4.1c-7.1,0-12.3,5.6-12.3,12.3V21
		C229,27.7,234.2,33.2,241.2,33.2"/>
	<rect id="XMLID_25_" x="220.6" y="9.1" class="st0" width="5.4" height="23.6"/>
	<rect id="XMLID_24_" x="220.4" y="0.3" class="st0" width="5.8" height="5.1"/>
	<path id="XMLID_23_" class="st0" d="M180.5,32.7h5.4V19.4c0-3.6,2.1-5.9,5-5.9c3,0,4.8,2.1,4.8,5.7v13.4h5.4V19.4
		c0-3.8,2.1-5.9,5-5.9c3,0,4.8,2,4.8,5.8v13.4h5.4V17.6c0-5.8-3.1-9-8.3-9c-3.6,0-6.1,1.7-8,4.2c-1.2-2.5-3.7-4.2-7.1-4.2
		c-3.6,0-5.7,2-7.2,4.1V9.1h-5.4V32.7z"/>
	<path id="XMLID_22_" class="st0" d="M131.2,32.7h5.4V19.4c0-3.7,2.2-5.9,5.3-5.9c3.2,0,5,2.1,5,5.8v13.4h5.4V17.6
		c0-5.4-3.1-9-8.4-9c-3.7,0-5.9,1.9-7.4,4.1V9.1h-5.4V32.7z"/>
	<path id="XMLID_21_" class="st0" d="M116.9,26.6l-6.7-17.5h-5.8l9.8,23.6c-0.9,2-1.8,2.7-3.3,2.7c-1.1,0-2.2-0.4-3.2-0.9l-1.8,4
		c1.7,0.9,3.4,1.4,5.6,1.4c3.8,0,5.9-1.8,7.8-6.6l9.4-24.3H123L116.9,26.6z"/>
</g>
<g id="XMLID_13_">
	<defs>
		<rect id="XMLID_14_" x="0.1" y="0.1" width="272.1" height="39.9"/>
	</defs>
	<clipPath id="XMLID_29_">
		<use xlink:href="#XMLID_14_"  style="overflow:visible;"/>
	</clipPath>
	<path id="XMLID_18_" class="st1" d="M21.2,32.7h-5.4V19.3c0-3.7-1.8-5.8-5-5.8c-3.1,0-5.3,2.2-5.3,5.9v13.3H0.1V9.1h5.4v3.6
		c1.5-2.2,3.7-4.1,7.4-4.1c5.3,0,8.4,3.6,8.4,9V32.7"/>
	<path id="XMLID_15_" class="st2" d="M96.4,0.1v12.7c-1.7-2.2-4.2-4.2-8-4.2c-5.6,0-10.9,4.4-10.9,12.2v0.1
		c0,7.8,5.4,12.2,10.9,12.2c3.8,0,6.3-2,8-4.4v3.9h5.4V0.1H96.4z M96.6,21c0,4.1-2.8,7.5-7.1,7.5c-4.2,0-7.2-3.4-7.2-7.5v-0.1
		c0-4.1,2.8-7.5,7.1-7.5C93.6,13.3,96.6,16.8,96.6,21L96.6,21z"/>
</g>
<g id="XMLID_2_">
	<defs>
		<rect id="XMLID_3_" x="0.1" y="0.1" width="272.1" height="39.9"/>
	</defs>
	<clipPath id="XMLID_30_">
		<use xlink:href="#XMLID_3_"  style="overflow:visible;"/>
	</clipPath>
	<path id="XMLID_10_" class="st3" d="M62.2,13.3c-4.3,0-7.1,3.4-7.1,7.5v0.1c0,4.1,3,7.5,7.2,7.5c4.4,0,7.1-3.4,7.1-7.5v-0.1
		C69.4,16.8,66.4,13.3,62.2,13.3 M62.2,33.2c-7.2,0-12.5-5.5-12.5-12.2v-0.1c0-6.7,5.4-12.3,12.6-12.3s12.5,5.5,12.5,12.2v0.1
		C74.8,27.6,69.5,33.2,62.2,33.2"/>
	<path id="XMLID_7_" class="st3" d="M35.7,13c-3.3,0-5.6,2.5-6.1,6.2h12.1C41.4,15.7,39.3,13,35.7,13 M36.4,33.2
		c-6.8,0-12.1-5-12.1-12.2v-0.1c0-6.7,4.8-12.3,11.5-12.3c7.5,0,11.3,5.9,11.3,12.7c0,0.5,0,1-0.1,1.5H29.7c0.6,3.8,3.3,6,6.8,6
		c2.6,0,4.5-1,6.4-2.8l3.2,2.8C43.8,31.5,40.7,33.2,36.4,33.2"/>
	<path id="XMLID_4_" class="st4" d="M174.2,11.4c-1.7-1.7-4.3-2.6-7.8-2.6c-3.8,0-6.3,0.8-8.9,1.9l1.4,4.2c2.1-0.9,4.1-1.5,6.7-1.5
		c3.8,0,5.8,1.8,5.8,5.1v0.6c-1.8-0.6-3.7-1-6.3-1c-5.8,0-9.7,2.5-9.7,7.6v0.1c0,4.7,3.9,7.3,8.4,7.3c3.6,0,6.1-1.5,7.7-3.4v2.9h5.3
		v-14C176.7,15.6,175.9,13.1,174.2,11.4 M171.6,24.2c0,3-2.9,5-6.7,5c-2.7,0-4.9-1.3-4.9-3.6v-0.1c0-2.5,2.2-3.9,5.9-3.9
		c2.3,0,4.2,0.4,5.7,0.9V24.2z"/>
</g>
</svg>
