<?xml version="1.0" encoding="UTF-8"?>
<svg width="276px" height="335px" viewBox="0 0 276 335" version="1.1" xmlns="http://www.w3.org/2000/svg" xmlns:xlink="http://www.w3.org/1999/xlink" xmlns:sketch="http://www.bohemiancoding.com/sketch/ns">
    <!-- Generator: Sketch 3.2 (9961) - http://www.bohemiancoding.com/sketch -->
    <title>Artboard 1</title>
    <desc>Created with Sketch.</desc>
    <defs></defs>
    <g id="Page-1" stroke="none" stroke-width="1" fill="none" fill-rule="evenodd" sketch:type="MSPage">
        <g id="Artboard-1" sketch:type="MSArtboardGroup" fill="#FFFFFF">
            <g id="logo" sketch:type="MSLayerGroup" transform="translate(1.000000, 0.000000)">
                <path d="M237.6,160.2 C230,160.2 219.3,156 212.5,152 C206.6,148.6 197.3,142.9 183.4,131.1 C192.7,119.7 204.3,98.4 204.3,81.4 C204.3,79.3 203.7,77.6 200.5,77.2 C188.7,75.9 180.3,75.7 175.2,75.7 C173.5,75.7 171.8,76.1 171.8,77.2 C171.8,78.3 173.1,78.7 174.3,78.7 C177.5,78.7 181.9,79.3 184.6,82.1 C187.8,85.3 188.6,89.3 188.6,92.4 C188.6,105.3 183.8,119.4 177.9,127.4 C171.9,122.4 151,102.9 141.3,93 L141.3,68 L141.3,52.5 C153.9,50 166.1,50.1 174.7,52.6 C179,53.9 182.3,56.5 182.3,60.3 C182.3,62.3 182.8,62.8 183.8,62.8 C184.8,62.8 185.2,62 185.2,60.2 C185.2,57.7 185.7,40.6 185.7,39.2 C185.7,38.2 185.3,37.5 183.4,37.4 C178,37.2 178,37.2 170.1,37.2 C169.6,37.2 169.1,37.2 168.7,37.3 C167,37.3 165.3,37.3 163.5,37.4 C163.7,30.1 164,16.5 164,11.6 C164,9.1 163.8,7.8 161.3,6.3 C155.6,3.1 146.6,1 135.8,1 C107.6,1 90.5,23.1 90.5,39.8 C90.5,45.7 90.1,53.4 96.1,61.2 C95.9,61.4 95.8,61.5 95.6,61.7 C79.1,74.6 67.4,93.4 68.5,119.7 C68.5,138 82.8,166.3 119.7,166.3 C150.9,166.3 167.5,148.4 172.4,143.5 C195.6,161.8 200.6,163.3 216.2,163.3 L237,163.3 C238.9,163.3 240.6,162.7 240.6,161.8 C240.6,160.4 239.5,160.2 237.6,160.2 L237.6,160.2 Z M123.7,67.9 L123.7,73.4 C120.2,69.2 117.1,65.4 114.6,61.7 C117.5,60.1 120.6,58.8 123.7,57.5 L123.7,67.9 L123.7,67.9 Z M141.4,40.6 C141.4,30.5 141.5,26.6 141.8,22.4 C142.2,15.1 142.4,9.9 148,13.3 C149.8,14.5 151.4,15.9 152.7,17.4 C157,21.9 158.6,31.4 159.1,37.7 C153.7,38.1 147.6,39.1 141.4,40.6 L141.4,40.6 Z M116.3,12.5 C117.7,11.6 119,10.8 120,10.8 C123.3,10.8 122.9,15.3 123.3,22.4 C123.6,27.3 123.7,31.7 123.7,46 C118.8,47.9 113.9,50.1 109.2,52.7 C108.273254,50.8784641 107.499693,49.077353 106.876053,47.2803488 C105.548183,43.4541183 104.9,39.6465074 104.9,35.7 C104.9,24.1 109.7,16.7 116.3,12.5 Z M85.1,109.6 C85.1,103.8 85.7,97.9 86.9,92.5 C89.4,83.6 94.8,76.2 101.9,70.1 C106.9,77.2 116.9,89.6 123.7,97.7 L123.7,104.9 C123.7,125.1 123.7,134.7 122.6,143.6 C122,147.9 122.7,155.7 113.2,152.4 C113.1,152.4 113,152.3 113,152.4 C96.6,146.6 85.1,130.4 85.1,109.6 L85.1,109.6 Z M148.5,151.2 C144.1,152.6 142.1,152.2 142.1,148.3 C142,140.9 141.6,130.4 141.5,116.1 C149.8,124 160.1,133.5 167.1,139.3 C162.9,143.6 156.7,148.2 148.5,151.2 L148.5,151.2 Z" id="Shape" sketch:type="MSShapeGroup"></path>
                <g id="Group" transform="translate(0.000000, 215.000000)" sketch:type="MSShapeGroup">
                    <path d="M6.8,18.4 C6.8,9 6.8,7.4 6.7,5.4 C6.6,3.4 6.1,2.4 4.1,2 C3.6,1.9 2.6,1.8 2.1,1.8 C1.9,1.8 1.6,1.7 1.6,1.4 C1.6,1 1.9,0.9 2.6,0.9 C5.3,0.9 9.1,1.1 9.4,1.1 C10.8,1.1 13.2,0.9 15.9,0.9 C25.7,0.9 27.9,6.9 27.9,9.9 C27.9,14.8 25.1,17.8 22.3,20.7 C26.7,22.1 32.7,26.3 32.7,33.4 C32.7,39.8 27.7,46.5 17.4,46.5 C16.7,46.5 14.8,46.4 13.1,46.3 C11.4,46.2 9.7,46.1 9.4,46.1 C9.3,46.1 8.3,46.1 7,46.2 C5.8,46.2 4.4,46.3 3.5,46.3 C2.8,46.3 2.5,46.2 2.5,45.8 C2.5,45.6 2.6,45.4 3,45.4 C3.5,45.4 4.3,45.3 4.8,45.2 C6,45 6.3,43.6 6.5,41.9 C6.8,39.4 6.8,34.6 6.8,28.9 L6.8,18.4 L6.8,18.4 Z M11.6,19.7 C11.6,20.1 11.7,20.2 12,20.4 C12.4,20.5 13.4,20.6 15.7,20.6 C19.1,20.6 19.9,20.5 21.2,19 C22.5,17.6 23.4,15.4 23.4,12.9 C23.4,7.9 21.2,2.6 15.3,2.6 C14.6,2.6 13.4,2.7 12.4,2.9 C11.9,3 11.7,3.2 11.7,3.6 L11.7,19.7 L11.6,19.7 Z M11.6,26 C11.6,30.6 11.6,38.1 11.7,39 C11.9,41.9 11.9,42.8 13.7,43.7 C15.3,44.5 17.9,44.6 19,44.6 C22.2,44.6 27.5,42.9 27.5,36.1 C27.5,32.5 26.3,27.3 21.7,24.1 C19.7,22.7 18.2,22.5 16.7,22.4 C15.9,22.3 12.9,22.3 12,22.3 C11.8,22.3 11.6,22.4 11.6,22.7 L11.6,26 L11.6,26 Z" id="Shape"></path>
                    <path d="M64.8,0.1 C78.3,0.1 88.4,8.6 88.4,22.6 C88.4,36 78.9,47.1 64.5,47.1 C48.1,47.1 41.2,34.3 41.2,23.5 C41.2,13.9 48.2,0.1 64.8,0.1 L64.8,0.1 Z M66.1,44.9 C71.5,44.9 82.7,41.8 82.7,24.3 C82.7,9.9 73.9,2.2 64.5,2.2 C54.5,2.2 47,8.8 47,21.9 C46.9,35.9 55.3,44.9 66.1,44.9 L66.1,44.9 Z" id="Shape"></path>
                    <path d="M99.1,45.5 C98.3,45.1 98.2,44.8 98.2,43.2 C98.2,40.2 98.4,37.8 98.5,36.8 C98.6,36.1 98.7,35.8 99,35.8 C99.4,35.8 99.4,36 99.4,36.5 C99.4,37 99.4,37.9 99.6,38.7 C100.5,43.1 104.5,44.8 108.5,44.8 C114.3,44.8 117.1,40.7 117.1,36.8 C117.1,32.7 115.4,30.3 110.2,26 L107.5,23.8 C101.1,18.6 99.7,14.9 99.7,10.8 C99.7,4.4 104.5,0 112.1,0 C114.4,0 116.2,0.2 117.7,0.6 C118.8,0.8 119.3,0.9 119.8,0.9 C120.3,0.9 120.4,1 120.4,1.3 C120.4,1.6 120.2,3.6 120.2,7.7 C120.2,8.7 120.1,9.1 119.8,9.1 C119.4,9.1 119.4,8.8 119.3,8.3 C119.2,7.6 118.9,6 118.5,5.3 C118.1,4.6 116.5,2.1 111,2.1 C106.9,2.1 103.6,4.7 103.6,9.1 C103.6,12.5 105.2,14.7 110.9,19.2 L112.6,20.5 C119.7,26.1 121.4,29.8 121.4,34.6 C121.4,37.1 120.4,41.6 116.3,44.6 C113.7,46.4 110.5,47.1 107.2,47.1 C104.3,47.2 101.5,46.7 99.1,45.5 L99.1,45.5 Z" id="Shape"></path>
                    <path d="M163.1,45.1 C160.9,46.2 156.9,47.1 153.7,47.1 C137.1,47.1 130.2,34.3 130.2,23.5 C130.2,13.8 137.3,0 153.8,0 C167.3,0 177.4,8.6 177.4,22.5 C177.4,33.1 170.7,40.1 166.8,42.7 L179.1,49.1 C192.2,55.9 201.4,56.2 204.4,56.2 C207.4,56.2 212.1,55.5 216.2,53.9 C216.6,53.8 216.9,53.7 217,53.7 C217.2,53.7 217.4,53.9 217.4,54.1 C217.4,54.3 217.3,54.5 216.9,54.7 C213.5,56.3 206.8,58.8 197.9,58.8 C190.6,58.8 182.9,56.2 173.2,50.8 L163.1,45.1 L163.1,45.1 Z M155.2,44.9 C160.6,44.9 171.8,41.8 171.8,24.3 C171.8,9.9 163,2.2 153.6,2.2 C143.6,2.2 136.1,8.8 136.1,21.9 C136,35.9 144.4,44.9 155.2,44.9 L155.2,44.9 Z" id="Shape"></path>
                    <path d="M188.8,18.4 C188.8,9 188.8,7.4 188.7,5.4 C188.6,3.4 188.1,2.4 186.1,2 C185.6,1.9 184.6,1.8 184.1,1.8 C183.9,1.8 183.6,1.7 183.6,1.4 C183.6,1 183.9,0.9 184.6,0.9 C187.3,0.9 191,1.1 191.5,1.1 C192,1.1 195.6,0.9 197.4,0.9 C198.1,0.9 198.4,1 198.4,1.4 C198.4,1.6 198.2,1.8 197.9,1.8 C197.5,1.8 197.1,1.9 196.4,2 C194.8,2.2 194.3,3.3 194.2,5.4 C194.1,7.3 194.1,9 194.1,18.4 L194.1,26.8 C194.1,35.4 196,39.2 198.6,41.6 C201.5,44.4 204.2,44.9 207.7,44.9 C211.4,44.9 215,43.2 217.1,40.6 C219.9,37.2 220.6,32.1 220.6,25.9 L220.6,18.4 C220.6,9 220.6,7.4 220.5,5.4 C220.4,3.4 219.9,2.4 217.9,2 C217.4,1.9 216.4,1.8 215.9,1.8 C215.7,1.8 215.4,1.7 215.4,1.4 C215.4,1 215.7,0.9 216.4,0.9 C219.1,0.9 222.4,1.1 222.8,1.1 C223.2,1.1 226,0.9 227.8,0.9 C228.5,0.9 228.8,1 228.8,1.4 C228.8,1.6 228.6,1.8 228.3,1.8 C227.9,1.8 227.5,1.9 226.8,2 C225.2,2.4 224.7,3.3 224.6,5.4 C224.5,7.3 224.5,9 224.5,18.4 L224.5,24.8 C224.5,31.3 223.8,38.5 219,42.7 C214.7,46.5 210.2,47.1 206.6,47.1 C204.6,47.1 198.5,46.9 194.2,42.8 C191.3,40 189,35.8 189,27 L189,18.4 L188.8,18.4 Z" id="Shape"></path>
                    <path d="M242.1,18.4 C242.1,9 242.1,7.4 242,5.4 C241.9,3.4 241.4,2.4 239.4,2 C238.9,1.9 237.9,1.8 237.4,1.8 C237.2,1.8 236.9,1.7 236.9,1.4 C236.9,1 237.2,0.9 237.9,0.9 C239.3,0.9 240.9,0.9 242.2,1 L244.7,1.1 C245.1,1.1 257.1,1.1 258.4,1 C259.5,0.9 260.5,0.8 261,0.7 C261.3,0.6 261.5,0.4 261.8,0.4 C262,0.4 262,0.6 262,0.9 C262,1.3 261.7,2 261.5,3.7 C261.4,4.3 261.3,6.9 261.2,7.7 C261.1,8 261,8.4 260.8,8.4 C260.4,8.4 260.3,8.1 260.3,7.6 C260.3,7.2 260.2,6.2 259.9,5.4 C259.5,4.4 258.9,3.7 255.6,3.4 C254.6,3.3 248,3.2 247.4,3.2 C247.2,3.2 247,3.4 247,3.8 L247,20.4 C247,20.8 247.1,21 247.4,21 C248.2,21 255.6,21 256.9,20.9 C258.3,20.8 259.2,20.7 259.7,20.1 C260.1,19.6 260.4,19.3 260.6,19.3 C260.8,19.3 260.9,19.4 260.9,19.8 C260.9,20.2 260.6,21.2 260.4,23.2 C260.3,24.4 260.2,26.6 260.2,27 C260.2,27.5 260.2,28.1 259.8,28.1 C259.5,28.1 259.4,27.9 259.4,27.6 C259.4,27 259.4,26.4 259.2,25.6 C259,24.8 258.4,23.7 256.1,23.5 C254.5,23.3 248.5,23.2 247.5,23.2 C247.2,23.2 247.1,23.4 247.1,23.6 L247.1,28.9 C247.1,30.9 247,37.9 247.1,39.2 C247.3,43.3 248.2,44.1 254.1,44.1 C255.7,44.1 258.3,44.1 259.9,43.4 C261.5,42.7 262.2,41.5 262.6,39.1 C262.7,38.4 262.8,38.2 263.1,38.2 C263.5,38.2 263.5,38.7 263.5,39.1 C263.5,39.6 263,43.7 262.7,44.9 C262.3,46.5 261.8,46.5 259.5,46.5 C255,46.5 251.7,46.4 249.4,46.3 C247.1,46.2 245.6,46.1 244.7,46.1 C244.6,46.1 243.6,46.1 242.3,46.2 C241.1,46.2 239.7,46.3 238.8,46.3 C238.1,46.3 237.8,46.2 237.8,45.8 C237.8,45.6 237.9,45.4 238.3,45.4 C238.8,45.4 239.6,45.3 240.1,45.2 C241.3,45 241.6,43.6 241.8,41.9 C242.1,39.4 242.1,34.6 242.1,28.9 L242.1,18.4 L242.1,18.4 Z" id="Shape"></path>
                    <path d="M7.3,112.2 C1.5,107 0,100.1 0,94.4 C0,90.4 1.4,83.4 6.7,78 C10.3,74.4 15.8,71.6 25,71.6 C27.4,71.6 30.8,71.8 33.7,72.3 C36,72.7 37.9,73.1 39.8,73.2 C40.5,73.3 40.6,73.5 40.6,73.9 C40.6,74.4 40.4,75.1 40.3,77.3 C40.2,79.3 40.2,82.6 40.1,83.5 C40,84.4 39.9,84.8 39.6,84.8 C39.2,84.8 39.1,84.4 39.1,83.5 C39.1,81.2 38.1,78.7 36.6,77.4 C34.5,75.6 29.9,74 24.6,74 C16.6,74 12.9,76.3 10.8,78.4 C6.4,82.6 5.4,87.9 5.4,94.1 C5.4,105.6 14.2,116.1 27.1,116.1 C31.6,116.1 35.1,115.6 37.5,113.1 C38.8,111.8 39.5,109.1 39.7,108.1 C39.8,107.4 39.9,107.2 40.3,107.2 C40.6,107.2 40.7,107.6 40.7,108.1 C40.7,108.5 40,113.7 39.4,115.8 C39,116.9 38.9,117.1 37.8,117.5 C35.4,118.5 30.8,118.9 27,118.9 C18.1,118.6 12.1,116.4 7.3,112.2 L7.3,112.2 Z" id="Shape"></path>
                    <path d="M74.4,71.6 C87.9,71.6 98,80.1 98,94.1 C98,107.5 88.5,118.6 74.1,118.6 C57.7,118.6 50.8,105.8 50.8,95 C50.8,85.4 57.8,71.6 74.4,71.6 L74.4,71.6 Z M75.7,116.4 C81.1,116.4 92.3,113.3 92.3,95.8 C92.3,81.4 83.5,73.7 74.1,73.7 C64.1,73.7 56.6,80.3 56.6,93.4 C56.5,107.4 64.9,116.4 75.7,116.4 L75.7,116.4 Z" id="Shape"></path>
                    <path d="M117.7,100.5 C117.7,109.3 117.9,113.2 119,114.2 C120,115.2 121.5,115.6 126.2,115.6 C129.4,115.6 132,115.5 133.5,113.8 C134.3,112.8 134.9,111.3 135.1,110.2 C135.2,109.7 135.3,109.4 135.6,109.4 C135.9,109.4 136,109.6 136,110.3 C136,111 135.6,114.6 135.1,116.3 C134.7,117.7 134.5,117.9 131.3,117.9 C127,117.9 123.9,117.8 121.3,117.7 C118.8,117.6 116.9,117.5 115.2,117.5 C115,117.5 113.9,117.6 112.7,117.6 C111.5,117.7 110.2,117.7 109.3,117.7 C108.6,117.7 108.3,117.6 108.3,117.2 C108.3,117 108.4,116.8 108.8,116.8 C109.3,116.8 110.1,116.7 110.6,116.6 C111.8,116.4 112.1,115 112.3,113.3 C112.6,110.8 112.6,106 112.6,100.3 L112.6,89.7 C112.6,80.3 112.6,78.7 112.5,76.7 C112.4,74.7 111.9,73.7 109.9,73.3 C109.4,73.2 108.4,73.1 107.9,73.1 C107.7,73.1 107.4,73 107.4,72.7 C107.4,72.3 107.7,72.2 108.4,72.2 C111.1,72.2 114.9,72.4 115.2,72.4 C115.5,72.4 119.9,72.2 121.7,72.2 C122.4,72.2 122.7,72.3 122.7,72.7 C122.7,72.9 122.5,73.1 122.2,73.1 C121.8,73.1 120.9,73.2 120.2,73.3 C118.5,73.6 118,74.6 117.9,76.7 C117.8,78.6 117.8,80.3 117.8,89.7 L117.8,100.5 L117.7,100.5 Z" id="Shape"></path>
                    <path d="M156.3,100.4 C156.3,106.2 156.3,110.9 156.6,113.4 C156.8,115.1 157.1,116.5 158.9,116.7 C159.7,116.8 161.1,116.9 161.6,116.9 C162,116.9 162.1,117.1 162.1,117.3 C162.1,117.6 161.8,117.8 161.1,117.8 C157.8,117.8 154,117.6 153.7,117.6 C153.4,117.6 149.6,117.8 147.8,117.8 C147.1,117.8 146.8,117.7 146.8,117.3 C146.8,117.1 146.9,116.9 147.3,116.9 C147.8,116.9 148.6,116.8 149.1,116.7 C150.3,116.5 150.6,115.1 150.8,113.4 C151.1,110.9 151.1,106.1 151.1,100.4 L151.1,89.8 C151.1,80.4 151.1,78.8 151,76.8 C150.9,74.8 150.3,73.7 149,73.4 C148.3,73.2 147.6,73.2 147.1,73.2 C146.9,73.2 146.6,73.1 146.6,72.8 C146.6,72.4 146.9,72.3 147.6,72.3 C149.6,72.3 153.4,72.5 153.7,72.5 C154,72.5 157.8,72.3 159.6,72.3 C160.3,72.3 160.6,72.4 160.6,72.8 C160.6,73 160.4,73.2 160.1,73.2 C159.7,73.2 159.3,73.3 158.6,73.4 C157,73.7 156.5,74.7 156.4,76.8 C156.3,78.7 156.3,80.4 156.3,89.8 L156.3,100.4 L156.3,100.4 Z" id="Shape"></path>
                    <path d="M182.2,109.6 C182.3,114.5 182.9,116.1 184.5,116.6 C185.6,116.9 187,117 187.5,117 C187.8,117 188,117.1 188,117.4 C188,117.8 187.6,117.9 186.9,117.9 C183.5,117.9 181.1,117.7 180.5,117.7 C179.9,117.7 177.4,117.9 174.7,117.9 C174.1,117.9 173.7,117.8 173.7,117.4 C173.7,117.2 173.9,117 174.2,117 C174.7,117 175.8,116.9 176.7,116.6 C178.2,116.2 178.5,114.4 178.5,109 L178.6,74.6 C178.6,72.3 178.8,71.6 179.3,71.6 C179.8,71.6 180.8,72.9 181.4,73.5 C182.3,74.5 191.2,84.2 200.5,94.1 C206.4,100.5 213,107.8 214.9,109.8 L214.2,79.3 C214.1,75.4 213.7,74.1 211.9,73.6 C210.8,73.4 209.4,73.3 209,73.3 C208.6,73.3 208.5,73.1 208.5,72.9 C208.5,72.5 209,72.5 209.7,72.5 C212.4,72.5 215.3,72.7 215.9,72.7 C216.6,72.7 218.5,72.5 221,72.5 C221.7,72.5 222.1,72.6 222.1,72.9 C222.1,73.1 221.9,73.3 221.4,73.3 C221.1,73.3 220.7,73.3 220,73.5 C218,73.9 217.8,75.2 217.8,78.8 L217.7,114 C217.7,118 217.6,118.3 217.2,118.3 C216.7,118.3 216,117.6 212.8,114.5 C212.1,113.9 203.5,105.1 197.1,98.2 C190.1,90.7 183.4,83.1 181.4,81 L182.2,109.6 L182.2,109.6 Z" id="Shape"></path>
                    <path d="M249.1,74 C249.8,72 250.1,71.7 250.4,71.7 C250.8,71.7 251,72 251.7,73.9 C252.6,76.2 262,101 265.7,110.1 C267.9,115.4 269.6,116.4 270.9,116.8 C271.8,117.1 272.7,117.2 273.3,117.2 C273.7,117.2 273.9,117.3 273.9,117.6 C273.9,118 273.4,118.1 272.7,118.1 C271.8,118.1 267.4,118.1 263.3,118 C262.2,117.9 261.5,117.9 261.5,117.6 C261.5,117.4 261.7,117.2 261.9,117.2 C262.3,117.1 262.6,116.5 262.3,115.6 L256.7,100.8 C256.6,100.6 256.5,100.4 256.2,100.4 L243.3,100.4 C243,100.4 242.8,100.6 242.7,100.9 L239.1,111.5 C238.6,113 238.3,114.4 238.3,115.5 C238.3,116.7 239.6,117.2 240.6,117.2 L241.2,117.2 C241.6,117.2 241.8,117.3 241.8,117.6 C241.8,118 241.4,118.1 240.9,118.1 C239.5,118.1 236.9,117.9 236.2,117.9 C235.5,117.9 232.2,118.1 229.4,118.1 C228.6,118.1 228.3,118 228.3,117.6 C228.3,117.4 228.5,117.2 228.8,117.2 C229.2,117.2 230.1,117.1 230.5,117.1 C233.3,116.7 234.5,114.5 235.5,111.5 L249.1,74 L249.1,74 Z M255.3,97.9 C255.6,97.9 255.6,97.7 255.5,97.5 L249.8,81.3 C249.5,80.4 249.2,80.4 248.9,81.3 L243.6,97.5 C243.5,97.8 243.6,97.9 243.8,97.9 L255.3,97.9 L255.3,97.9 Z" id="Shape"></path>
                </g>
            </g>
        </g>
    </g>
</svg>