<?xml version="1.0" encoding="UTF-8"?>
<svg width="273px" height="40px" viewBox="0 0 273 40" version="1.1" xmlns="http://www.w3.org/2000/svg" xmlns:xlink="http://www.w3.org/1999/xlink" xmlns:sketch="http://www.bohemiancoding.com/sketch/ns">
    <!-- Generator: Sketch 3.2 (9961) - http://www.bohemiancoding.com/sketch -->
    <title>Artboard 1</title>
    <desc>Created with Sketch.</desc>
    <defs></defs>
    <g id="Page-1" stroke="none" stroke-width="1" fill="none" fill-rule="evenodd" sketch:type="MSPage">
        <g id="Artboard-1" sketch:type="MSArtboardGroup">
            <g id="logo-(1)" sketch:type="MSLayerGroup">
                <g id="XMLID_19_" transform="translate(104.000000, 0.000000)" fill="#FFFFFF" sketch:type="MSShapeGroup">
                    <path d="M159.5,33.1 C164.4,33.1 168.3,30.6 168.3,25.7 L168.3,25.6 C168.3,21.4 164.4,19.8 161,18.7 C158.2,17.8 155.7,17.1 155.7,15.3 L155.7,15.2 C155.7,13.9 156.9,12.9 159,12.9 C161,12.9 163.4,13.7 165.7,15.1 L167.8,11.3 C165.3,9.6 162.1,8.6 159.1,8.6 C154.4,8.6 150.7,11.3 150.7,15.8 L150.7,16 C150.7,20.5 154.6,21.9 158.1,22.9 C160.9,23.7 163.4,24.4 163.4,26.2 L163.4,26.3 C163.4,27.9 162.1,28.8 159.7,28.8 C157.3,28.8 154.6,27.8 152,25.9 L149.6,29.6 C152.4,31.9 156.1,33.1 159.5,33.1" id="XMLID_27_"></path>
                    <path d="M137.2,33.2 C141.8,33.2 144.5,31.4 146.8,28.8 L143.5,25.6 C141.8,27.3 139.9,28.5 137.4,28.5 C133.2,28.5 130.3,25.2 130.3,21 L130.3,20.9 C130.3,16.8 133.2,13.4 137.1,13.4 C139.8,13.4 141.5,14.6 143.2,16.3 L146.6,12.7 C144.4,10.3 141.6,8.6 137.2,8.6 C130.1,8.6 124.9,14.2 124.9,20.9 L124.9,21 C125,27.7 130.2,33.2 137.2,33.2" id="XMLID_26_"></path>
                    <rect id="XMLID_25_" x="116.6" y="9.1" width="5.4" height="23.6"></rect>
                    <rect id="XMLID_24_" x="116.4" y="0.3" width="5.8" height="5.1"></rect>
                    <path d="M76.5,32.7 L81.9,32.7 L81.9,19.4 C81.9,15.8 84,13.5 86.9,13.5 C89.9,13.5 91.7,15.6 91.7,19.2 L91.7,32.6 L97.1,32.6 L97.1,19.4 C97.1,15.6 99.2,13.5 102.1,13.5 C105.1,13.5 106.9,15.5 106.9,19.3 L106.9,32.7 L112.3,32.7 L112.3,17.6 C112.3,11.8 109.2,8.6 104,8.6 C100.4,8.6 97.9,10.3 96,12.8 C94.8,10.3 92.3,8.6 88.9,8.6 C85.3,8.6 83.2,10.6 81.7,12.7 L81.7,9.1 L76.3,9.1 L76.3,32.7 L76.5,32.7 Z" id="XMLID_23_"></path>
                    <path d="M27.2,32.7 L32.6,32.7 L32.6,19.4 C32.6,15.7 34.8,13.5 37.9,13.5 C41.1,13.5 42.9,15.6 42.9,19.3 L42.9,32.7 L48.3,32.7 L48.3,17.6 C48.3,12.2 45.2,8.6 39.9,8.6 C36.2,8.6 34,10.5 32.5,12.7 L32.5,9.1 L27.1,9.1 L27.1,32.7 L27.2,32.7 Z" id="XMLID_22_"></path>
                    <path d="M12.9,26.6 L6.2,9.1 L0.4,9.1 L10.2,32.7 C9.3,34.7 8.4,35.4 6.9,35.4 C5.8,35.4 4.7,35 3.7,34.5 L1.9,38.5 C3.6,39.4 5.3,39.9 7.5,39.9 C11.3,39.9 13.4,38.1 15.3,33.3 L24.7,9 L19,9 L12.9,26.6 L12.9,26.6 Z" id="XMLID_21_"></path>
                </g>
                <g id="XMLID_13_" sketch:type="MSShapeGroup">
                    <path d="M21.2,32.7 L15.8,32.7 L15.8,19.3 C15.8,15.6 14,13.5 10.8,13.5 C7.7,13.5 5.5,15.7 5.5,19.4 L5.5,32.7 L0.1,32.7 L0.1,9.1 L5.5,9.1 L5.5,12.7 C7,10.5 9.2,8.6 12.9,8.6 C18.2,8.6 21.3,12.2 21.3,17.6 L21.3,32.7" id="XMLID_18_" fill="#DFDFDF"></path>
                    <path d="M96.4,0.1 L96.4,12.8 C94.7,10.6 92.2,8.6 88.4,8.6 C82.8,8.6 77.5,13 77.5,20.8 L77.5,20.9 C77.5,28.7 82.9,33.1 88.4,33.1 C92.2,33.1 94.7,31.1 96.4,28.7 L96.4,32.6 L101.8,32.6 L101.8,0.1 L96.4,0.1 L96.4,0.1 Z M96.6,21 C96.6,25.1 93.8,28.5 89.5,28.5 C85.3,28.5 82.3,25.1 82.3,21 L82.3,20.9 C82.3,16.8 85.1,13.4 89.4,13.4 C93.6,13.3 96.6,16.8 96.6,21 L96.6,21 L96.6,21 Z" id="XMLID_15_" fill="#FFFFFF"></path>
                </g>
                <g id="XMLID_2_" transform="translate(24.000000, 8.000000)" sketch:type="MSShapeGroup">
                    <path d="M38.2,5.3 C33.9,5.3 31.1,8.7 31.1,12.8 L31.1,12.9 C31.1,17 34.1,20.4 38.3,20.4 C42.7,20.4 45.4,17 45.4,12.9 L45.4,12.8 C45.4,8.8 42.4,5.3 38.2,5.3 M38.2,25.2 C31,25.2 25.7,19.7 25.7,13 L25.7,12.9 C25.7,6.2 31.1,0.6 38.3,0.6 C45.5,0.6 50.8,6.1 50.8,12.8 L50.8,12.9 C50.8,19.6 45.5,25.2 38.2,25.2" id="XMLID_10_" fill="#DFDFDF"></path>
                    <path d="M11.7,5 C8.4,5 6.1,7.5 5.6,11.2 L17.7,11.2 C17.4,7.7 15.3,5 11.7,5 M12.4,25.2 C5.6,25.2 0.3,20.2 0.3,13 L0.3,12.9 C0.3,6.2 5.1,0.6 11.8,0.6 C19.3,0.6 23.1,6.5 23.1,13.3 C23.1,13.8 23.1,14.3 23,14.8 L5.7,14.8 C6.3,18.6 9,20.8 12.5,20.8 C15.1,20.8 17,19.8 18.9,18 L22.1,20.8 C19.8,23.5 16.7,25.2 12.4,25.2" id="XMLID_7_" fill="#DFDFDF"></path>
                    <path d="M150.2,3.4 C148.5,1.7 145.9,0.8 142.4,0.8 C138.6,0.8 136.1,1.6 133.5,2.7 L134.9,6.9 C137,6 139,5.4 141.6,5.4 C145.4,5.4 147.4,7.2 147.4,10.5 L147.4,11.1 C145.6,10.5 143.7,10.1 141.1,10.1 C135.3,10.1 131.4,12.6 131.4,17.7 L131.4,17.8 C131.4,22.5 135.3,25.1 139.8,25.1 C143.4,25.1 145.9,23.6 147.5,21.7 L147.5,24.6 L152.8,24.6 L152.8,10.6 C152.7,7.6 151.9,5.1 150.2,3.4 L150.2,3.4 Z M147.6,16.2 C147.6,19.2 144.7,21.2 140.9,21.2 C138.2,21.2 136,19.9 136,17.6 L136,17.5 C136,15 138.2,13.6 141.9,13.6 C144.2,13.6 146.1,14 147.6,14.5 L147.6,16.2 L147.6,16.2 Z" id="XMLID_4_" fill="#FFFFFF"></path>
                </g>
            </g>
        </g>
    </g>
</svg>